<mxfile host="app.diagrams.net" modified="2023-09-11T05:21:32.989Z" agent="Mozilla/5.0 (Windows NT 10.0; Win64; x64) AppleWebKit/537.36 (KHTML, like Gecko) Chrome/116.0.0.0 Safari/537.36" version="21.7.4" etag="c1ZX-FMMjMdPyl7At9vK" type="github">
  <diagram name="Halaman-1" id="V82dkAbF0rHgYJmhJMoL">
    <mxGraphModel>
      <root>
        <mxCell id="0" />
        <mxCell id="1" parent="0" />
      </root>
    </mxGraphModel>
  </diagram>
</mxfile>
